{"title":"Kuroi ie AKA The Black House (1999)","uid":11429132,"size":2090215149,"categoryP":"video","categoryS":"movies","magnet":"?xt=urn:btih:76de609e2ea0d3f1bae9f735dfc65ef9f6742f7c&amp;dn=Kuroi+ie+AKA+The+Black+House+%281999%29&amp;tr=udp%3A%2F%2Ftracker.openbittorrent.com%3A80&amp;tr=udp%3A%2F%2Fopen.demonii.com%3A1337&amp;tr=udp%3A%2F%2Ftracker.coppersurfer.tk%3A6969&amp;tr=udp%3A%2F%2Fexodus.desync.com%3A6969","seeders":0,"leechers":1,"uploader":"cavallone","files":1,"time":1415700142,"description":"Plot: A meek agent at the Showa Life Insurance company receives a phone call from a customer who says that she's planning to commit suicide and wants to know if her policy will pay out. Concerned about her safety, the agent visits her house only to find that her young son has hanged himself. As he investigates further, more and more people connected with this family start having &quot;accidents,&quot; and if he's not careful, he might be next. \n\n\nRip specs:\n\nGeneral\nUnique ID                                : 208864895062262961514201777581239737136 (0x9D21EA6300DA859A810612CBA0D69B30)\nComplete name                            : Black House (1999).mkv\nFormat                                   : Matroska\nFormat version                           : Version 4 / Version 2\nFile size                                : 1.95 GiB\nDuration                                 : 2h 0mn\nOverall bit rate                         : 2 316 Kbps\nEncoded date                             : UTC 2014-11-11 08:30:25\nWriting application                      : mkvmerge v6.1.0 ('Old Devil') built on Mar  2 2013 14:32:37\nWriting library                          : libebml v1.3.0 + libmatroska v1.4.0\n\nVideo\nID                                       : 1\nFormat                                   : AVC\nFormat/Info                              : Advanced Video Codec\nFormat profile                           : &lt;a class=&quot;__cf_email__&quot; href=&quot;/cdn-cgi/l/email-protection&quot; data-cfemail=&quot;7d35141a153d3149534d&quot;&gt;[email&amp;#160;protected]&lt;/a&gt;&lt;script cf-hash='f9e31' type=&quot;text/javascript&quot;&gt;\n/* &lt;![CDATA[ */!function(){try{var t=&quot;currentScript&quot;in document?document.currentScript:function(){for(var t=document.getElementsByTagName(&quot;script&quot;),e=t.length;e--;)if(t[e].getAttribute(&quot;cf-hash&quot;))return t[e]}();if(t&amp;&amp;t.previousSibling){var e,r,n,i,c=t.previousSibling,a=c.getAttribute(&quot;data-cfemail&quot;);if(a){for(e=&quot;&quot;,r=parseInt(a.substr(0,2),16),n=2;a.length-n;n+=2)i=parseInt(a.substr(n,2),16)^r,e+=String.fromCharCode(i);e=document.createTextNode(e),c.parentNode.replaceChild(e,c)}}}catch(u){}}();/* ]]&gt; */&lt;/script&gt;\nFormat settings, CABAC                   : Yes\nFormat settings, ReFrames                : 16 frames\nCodec ID                                 : V_MPEG4/ISO/AVC\nDuration                                 : 2h 0mn\nBit rate                                 : 1 880 Kbps\nWidth                                    : 716 pixels\nHeight                                   : 470 pixels\nDisplay aspect ratio                     : 16:9\nOriginal display aspect ratio            : 16:9\nFrame rate mode                          : Constant\nFrame rate                               : 23.976 fps\nColor space                              : YUV\nChroma subsampling                       : 4:2:0\nBit depth                                : 8 bits\nScan type                                : Progressive\nBits/(Pixel*Frame)                       : 0.233\nStream size                              : 1.53 GiB (79%)\nWriting library                          : x264 core 142 r2389 956c8d8\nEncoding settings                        : cabac=1 / ref=16 / deblock=1:-3:-3 / analyse=0x3:0x133 / me=umh / subme=11 / psy=1 / psy_rd=1,00:0,00 / mixed_ref=1 / me_range=32 / chroma_me=1 / trellis=2 / 8x8dct=1 / cqm=0 / deadzone=21,11 / fast_pskip=1 / chroma_qp_offset=-2 / threads=3 / lookahead_threads=1 / sliced_threads=0 / nr=0 / decimate=1 / interlaced=0 / bluray_compat=0 / constrained_intra=0 / bframes=14 / b_pyramid=2 / b_adapt=2 / b_bias=0 / direct=3 / weightb=1 / open_gop=0 / weightp=2 / keyint=240 / keyint_min=24 / scenecut=40 / intra_refresh=0 / rc_lookahead=60 / rc=abr / mbtree=1 / bitrate=1880 / ratetol=1,0 / qcomp=0,00 / qpmin=0 / qpmax=69 / qpstep=4 / ip_ratio=1,40 / aq=1:1,00\nLanguage                                 : Japanese\nDefault                                  : Yes\nForced                                   : No\nColor primaries                          : BT.601 NTSC\nTransfer characteristics                 : BT.709\nMatrix coefficients                      : BT.601\n\nAudio\nID                                       : 2\nFormat                                   : AC-3\nFormat/Info                              : Audio Coding 3\nMode extension                           : CM (complete main)\nFormat settings, Endianness              : Big\nCodec ID                                 : A_AC3\nDuration                                 : 2h 0mn\nBit rate mode                            : Constant\nBit rate                                 : 448 Kbps\nChannel(s)                               : 6 channels\nChannel positions                        : Front: L C R, Side: L R, LFE\nSampling rate                            : 48.0 KHz\nBit depth                                : 16 bits\nCompression mode                         : Lossy\nStream size                              : 386 MiB (19%)\nLanguage                                 : Japanese\nDefault                                  : Yes\nForced                                   : No\n\nText\nID                                       : 3\nFormat                                   : VobSub\nMuxing mode                              : zlib\nCodec ID                                 : S_VOBSUB\nCodec ID/Info                            : The same subtitle format used on DVDs\nLanguage                                 : English\nDefault                                  : No\nForced                                   : No\n\nMenu\n00:00:00.000                             : en:Chapter 1\n00:01:48.983                             : en:Chapter 2\n00:05:05.805                             : en:Chapter 3\n00:13:41.445                             : en:Chapter 4\n00:29:36.274                             : en:Chapter 5\n00:39:39.210                             : en:Chapter 6\n00:54:18.129                             : en:Chapter 7\n01:06:49.088                             : en:Chapter 8\n01:18:23.657                             : en:Chapter 9\n01:32:49.730                             : en:Chapter 10\n01:37:56.620                             : en:Chapter 11\n01:55:14.949                             : en:Chapter 12\n01:58:40.154                             : en:Chapter 13\n02:00:18.794                             : en:Chapter 14\n\n\nMy rip","torrent":{"xt":"urn:btih:76de609e2ea0d3f1bae9f735dfc65ef9f6742f7c","amp;dn":"Kuroi+ie+AKA+The+Black+House+%281999%29","amp;tr":["udp%3A%2F%2Ftracker.openbittorrent.com%3A80","udp%3A%2F%2Fopen.demonii.com%3A1337","udp%3A%2F%2Ftracker.coppersurfer.tk%3A6969","udp%3A%2F%2Fexodus.desync.com%3A6969"],"infoHash":"76de609e2ea0d3f1bae9f735dfc65ef9f6742f7c","infoHashBuffer":{"type":"Buffer","data":[118,222,96,158,46,160,211,241,186,233,247,53,223,198,94,249,246,116,47,124]},"announce":[],"urlList":[]}}